<mxfile host="Electron" modified="2024-06-19T17:45:15.016Z" agent="Mozilla/5.0 (Windows NT 10.0; Win64; x64) AppleWebKit/537.36 (KHTML, like Gecko) draw.io/24.5.3 Chrome/124.0.6367.207 Electron/30.0.6 Safari/537.36" etag="zsH2Tl2YFsC3hm9MwKCr" version="24.5.3" type="device">
  <diagram name="Page-1" id="44GXNg5hxRLB4LE1zciH">
    <mxGraphModel dx="977" dy="866" grid="1" gridSize="10" guides="1" tooltips="1" connect="1" arrows="1" fold="1" page="1" pageScale="1" pageWidth="827" pageHeight="1169" background="#FFFFFF" math="0" shadow="0">
      <root>
        <mxCell id="0" />
        <mxCell id="1" parent="0" />
        <object label="Technical serves" id="I__QmyRRbSbnrp2AgYeY-59">
          <mxCell style="html=1;whiteSpace=wrap;align=center;verticalAlign=bottom;fontFamily=Helvetica;fontSize=12;fillColor=#bac8d3;labelBorderColor=none;movable=0;resizable=1;rotatable=1;deletable=1;editable=1;locked=0;connectable=1;opacity=80;strokeColor=#1A1A1A;labelBackgroundColor=#FFFFFF;fontColor=#1A1A1A;labelPosition=center;verticalLabelPosition=top;noLabel=1;glass=0;shadow=0;" parent="1" vertex="1">
            <mxGeometry x="109" y="40" width="610" height="820" as="geometry" />
          </mxCell>
        </object>
        <mxCell id="I__QmyRRbSbnrp2AgYeY-12" style="edgeStyle=orthogonalEdgeStyle;rounded=0;orthogonalLoop=1;jettySize=auto;html=1;exitX=0.5;exitY=0.5;exitDx=0;exitDy=0;exitPerimeter=0;fontFamily=Helvetica;fontSize=12;fontColor=default;strokeColor=#000000;entryX=0;entryY=0.5;entryDx=0;entryDy=0;" parent="1" source="I__QmyRRbSbnrp2AgYeY-2" target="I__QmyRRbSbnrp2AgYeY-14" edge="1">
          <mxGeometry relative="1" as="geometry">
            <mxPoint x="160" y="180" as="targetPoint" />
            <Array as="points">
              <mxPoint x="130" y="85" />
              <mxPoint x="130" y="180" />
            </Array>
          </mxGeometry>
        </mxCell>
        <object label="user" id="I__QmyRRbSbnrp2AgYeY-2">
          <mxCell style="shape=umlActor;verticalLabelPosition=bottom;verticalAlign=top;html=1;fillColor=#b0e3e6;strokeColor=#0e8088;fontColor=#1A1A1A;" parent="1" vertex="1">
            <mxGeometry x="60" y="40" width="40" height="90" as="geometry" />
          </mxCell>
        </object>
        <mxCell id="I__QmyRRbSbnrp2AgYeY-15" style="edgeStyle=orthogonalEdgeStyle;rounded=0;orthogonalLoop=1;jettySize=auto;html=1;exitX=0.5;exitY=0.5;exitDx=0;exitDy=0;exitPerimeter=0;fontFamily=Helvetica;fontSize=12;fontColor=default;entryX=0;entryY=0.5;entryDx=0;entryDy=0;strokeColor=#000000;" parent="1" source="I__QmyRRbSbnrp2AgYeY-2" target="I__QmyRRbSbnrp2AgYeY-16" edge="1">
          <mxGeometry relative="1" as="geometry">
            <mxPoint x="371.42857142857133" y="84.23809523809518" as="targetPoint" />
            <Array as="points">
              <mxPoint x="130" y="85" />
              <mxPoint x="130" y="130" />
            </Array>
          </mxGeometry>
        </mxCell>
        <object label="تسجيل دخول" id="I__QmyRRbSbnrp2AgYeY-14">
          <mxCell style="ellipse;whiteSpace=wrap;html=1;fillColor=#fad7ac;strokeColor=#b46504;fontColor=#1A1A1A;" parent="1" vertex="1">
            <mxGeometry x="150" y="160" width="105" height="40" as="geometry" />
          </mxCell>
        </object>
        <mxCell id="I__QmyRRbSbnrp2AgYeY-61" style="edgeStyle=orthogonalEdgeStyle;rounded=0;orthogonalLoop=1;jettySize=auto;html=1;exitX=0.5;exitY=0.5;exitDx=0;exitDy=0;exitPerimeter=0;fontFamily=Helvetica;fontSize=12;fontColor=default;strokeColor=#1A1A1A;entryX=0;entryY=0.5;entryDx=0;entryDy=0;" parent="1" source="I__QmyRRbSbnrp2AgYeY-17" target="I__QmyRRbSbnrp2AgYeY-62" edge="1">
          <mxGeometry relative="1" as="geometry">
            <mxPoint x="170" y="270" as="targetPoint" />
            <Array as="points">
              <mxPoint x="130" y="280" />
              <mxPoint x="130" y="230" />
            </Array>
          </mxGeometry>
        </mxCell>
        <mxCell id="I__QmyRRbSbnrp2AgYeY-68" style="edgeStyle=orthogonalEdgeStyle;rounded=0;orthogonalLoop=1;jettySize=auto;html=1;exitX=0.5;exitY=0.5;exitDx=0;exitDy=0;exitPerimeter=0;fontFamily=Helvetica;fontSize=12;fontColor=default;strokeColor=#1A1A1A;entryX=0;entryY=0.5;entryDx=0;entryDy=0;" parent="1" source="I__QmyRRbSbnrp2AgYeY-17" target="I__QmyRRbSbnrp2AgYeY-114" edge="1">
          <mxGeometry relative="1" as="geometry">
            <mxPoint x="160" y="370" as="targetPoint" />
            <Array as="points">
              <mxPoint x="130" y="280" />
              <mxPoint x="130" y="290" />
            </Array>
          </mxGeometry>
        </mxCell>
        <mxCell id="I__QmyRRbSbnrp2AgYeY-76" style="edgeStyle=orthogonalEdgeStyle;rounded=0;orthogonalLoop=1;jettySize=auto;html=1;exitX=0.5;exitY=0.5;exitDx=0;exitDy=0;exitPerimeter=0;fontFamily=Helvetica;fontSize=12;fontColor=default;strokeColor=#1A1A1A;entryX=0;entryY=0.5;entryDx=0;entryDy=0;" parent="1" source="I__QmyRRbSbnrp2AgYeY-17" target="I__QmyRRbSbnrp2AgYeY-73" edge="1">
          <mxGeometry relative="1" as="geometry">
            <mxPoint x="170" y="520" as="targetPoint" />
            <Array as="points">
              <mxPoint x="130" y="280" />
              <mxPoint x="130" y="350" />
            </Array>
          </mxGeometry>
        </mxCell>
        <mxCell id="KX7zg8ddFPPzfFEK-kxr-38" style="edgeStyle=orthogonalEdgeStyle;rounded=0;orthogonalLoop=1;jettySize=auto;html=1;entryX=0;entryY=0.5;entryDx=0;entryDy=0;strokeColor=#1A1A1A;exitX=0.5;exitY=0.5;exitDx=0;exitDy=0;exitPerimeter=0;" parent="1" source="I__QmyRRbSbnrp2AgYeY-17" target="KX7zg8ddFPPzfFEK-kxr-37" edge="1">
          <mxGeometry relative="1" as="geometry">
            <Array as="points">
              <mxPoint x="130" y="280" />
              <mxPoint x="130" y="405" />
            </Array>
          </mxGeometry>
        </mxCell>
        <object label="Client&amp;nbsp;" id="I__QmyRRbSbnrp2AgYeY-17">
          <mxCell style="shape=umlActor;verticalLabelPosition=bottom;verticalAlign=top;html=1;fillColor=#b0e3e6;strokeColor=#0e8088;fontColor=#1A1A1A;" parent="1" vertex="1">
            <mxGeometry x="60" y="235" width="40" height="90" as="geometry" />
          </mxCell>
        </object>
        <object label="تغيرالملف الشخصي" id="I__QmyRRbSbnrp2AgYeY-16">
          <mxCell style="ellipse;whiteSpace=wrap;html=1;fillColor=#fad7ac;strokeColor=#b46504;fontColor=#1A1A1A;" parent="1" vertex="1">
            <mxGeometry x="150" y="110" width="105" height="40" as="geometry" />
          </mxCell>
        </object>
        <mxCell id="I__QmyRRbSbnrp2AgYeY-120" style="edgeStyle=orthogonalEdgeStyle;rounded=0;orthogonalLoop=1;jettySize=auto;html=1;fontFamily=Helvetica;fontSize=12;fontColor=default;strokeColor=#1A1A1A;entryX=1;entryY=0.5;entryDx=0;entryDy=0;exitX=0.5;exitY=0.5;exitDx=0;exitDy=0;exitPerimeter=0;" parent="1" source="I__QmyRRbSbnrp2AgYeY-18" target="I__QmyRRbSbnrp2AgYeY-121" edge="1">
          <mxGeometry relative="1" as="geometry">
            <mxPoint x="630" y="100" as="targetPoint" />
            <Array as="points">
              <mxPoint x="680" y="85" />
              <mxPoint x="680" y="160" />
            </Array>
            <mxPoint x="750" y="90" as="sourcePoint" />
          </mxGeometry>
        </mxCell>
        <object label="technician" id="I__QmyRRbSbnrp2AgYeY-18">
          <mxCell style="shape=umlActor;verticalLabelPosition=bottom;verticalAlign=top;html=1;fillColor=#b0e3e6;strokeColor=#0e8088;fontColor=#1A1A1A;" parent="1" vertex="1">
            <mxGeometry x="730" y="40" width="40" height="90" as="geometry" />
          </mxCell>
        </object>
        <mxCell id="KX7zg8ddFPPzfFEK-kxr-2" style="edgeStyle=orthogonalEdgeStyle;rounded=0;orthogonalLoop=1;jettySize=auto;html=1;entryX=0;entryY=0.5;entryDx=0;entryDy=0;strokeColor=#1A1A1A;" parent="1" source="I__QmyRRbSbnrp2AgYeY-19" target="I__QmyRRbSbnrp2AgYeY-69" edge="1">
          <mxGeometry relative="1" as="geometry">
            <Array as="points">
              <mxPoint x="150" y="510" />
            </Array>
          </mxGeometry>
        </mxCell>
        <mxCell id="KX7zg8ddFPPzfFEK-kxr-3" style="edgeStyle=orthogonalEdgeStyle;rounded=0;orthogonalLoop=1;jettySize=auto;html=1;entryX=0;entryY=0.5;entryDx=0;entryDy=0;strokeColor=#1A1A1A;" parent="1" source="I__QmyRRbSbnrp2AgYeY-19" target="I__QmyRRbSbnrp2AgYeY-71" edge="1">
          <mxGeometry relative="1" as="geometry">
            <Array as="points">
              <mxPoint x="130" y="510" />
              <mxPoint x="130" y="575" />
            </Array>
          </mxGeometry>
        </mxCell>
        <mxCell id="KX7zg8ddFPPzfFEK-kxr-4" style="edgeStyle=orthogonalEdgeStyle;rounded=0;orthogonalLoop=1;jettySize=auto;html=1;entryX=0;entryY=0.5;entryDx=0;entryDy=0;strokeColor=#1A1A1A;" parent="1" source="I__QmyRRbSbnrp2AgYeY-19" target="I__QmyRRbSbnrp2AgYeY-81" edge="1">
          <mxGeometry relative="1" as="geometry">
            <Array as="points">
              <mxPoint x="130" y="510" />
              <mxPoint x="130" y="640" />
            </Array>
          </mxGeometry>
        </mxCell>
        <mxCell id="KX7zg8ddFPPzfFEK-kxr-6" style="edgeStyle=orthogonalEdgeStyle;rounded=0;orthogonalLoop=1;jettySize=auto;html=1;entryX=0;entryY=0.5;entryDx=0;entryDy=0;strokeColor=#1A1A1A;" parent="1" source="I__QmyRRbSbnrp2AgYeY-19" target="0F87uQr_aSHQk2SxOkEr-1" edge="1">
          <mxGeometry relative="1" as="geometry">
            <Array as="points">
              <mxPoint x="130" y="510" />
              <mxPoint x="130" y="710" />
            </Array>
          </mxGeometry>
        </mxCell>
        <object label="system&amp;nbsp;&lt;br&gt;manager&amp;nbsp;" id="I__QmyRRbSbnrp2AgYeY-19">
          <mxCell style="shape=umlActor;verticalLabelPosition=bottom;verticalAlign=top;html=1;fillColor=#b0e3e6;strokeColor=#0e8088;fontColor=#1A1A1A;" parent="1" vertex="1">
            <mxGeometry x="60" y="465" width="40" height="90" as="geometry" />
          </mxCell>
        </object>
        <mxCell id="I__QmyRRbSbnrp2AgYeY-105" style="edgeStyle=orthogonalEdgeStyle;rounded=0;orthogonalLoop=1;jettySize=auto;html=1;entryX=1;entryY=0.5;entryDx=0;entryDy=0;fontFamily=Helvetica;fontSize=12;fontColor=default;strokeColor=#1A1A1A;exitX=0.5;exitY=0.5;exitDx=0;exitDy=0;exitPerimeter=0;" parent="1" source="I__QmyRRbSbnrp2AgYeY-20" target="I__QmyRRbSbnrp2AgYeY-104" edge="1">
          <mxGeometry relative="1" as="geometry">
            <mxPoint x="1020" y="640" as="sourcePoint" />
            <Array as="points">
              <mxPoint x="680" y="405" />
              <mxPoint x="680" y="380" />
            </Array>
          </mxGeometry>
        </mxCell>
        <object label="Technical &lt;br&gt;company&amp;nbsp;" id="I__QmyRRbSbnrp2AgYeY-20">
          <mxCell style="shape=umlActor;verticalLabelPosition=bottom;verticalAlign=top;html=1;fillColor=#b0e3e6;strokeColor=#0e8088;fontColor=#1A1A1A;" parent="1" vertex="1">
            <mxGeometry x="730" y="360" width="40" height="90" as="geometry" />
          </mxCell>
        </object>
        <mxCell id="I__QmyRRbSbnrp2AgYeY-103" style="edgeStyle=orthogonalEdgeStyle;rounded=0;orthogonalLoop=1;jettySize=auto;html=1;exitX=0.5;exitY=0.5;exitDx=0;exitDy=0;exitPerimeter=0;entryX=1;entryY=0.5;entryDx=0;entryDy=0;fontFamily=Helvetica;fontSize=12;fontColor=default;strokeColor=#1A1A1A;" parent="1" source="I__QmyRRbSbnrp2AgYeY-21" target="I__QmyRRbSbnrp2AgYeY-102" edge="1">
          <mxGeometry relative="1" as="geometry">
            <Array as="points">
              <mxPoint x="750" y="240" />
              <mxPoint x="680" y="240" />
              <mxPoint x="680" y="280" />
            </Array>
          </mxGeometry>
        </mxCell>
        <object label="Independent &lt;br&gt;Technician" id="I__QmyRRbSbnrp2AgYeY-21">
          <mxCell style="shape=umlActor;verticalLabelPosition=bottom;verticalAlign=top;html=1;fillColor=#b0e3e6;strokeColor=#0e8088;fontColor=#1A1A1A;" parent="1" vertex="1">
            <mxGeometry x="730" y="190" width="40" height="90" as="geometry" />
          </mxCell>
        </object>
        <mxCell id="I__QmyRRbSbnrp2AgYeY-47" value="" style="endArrow=block;endSize=16;endFill=0;html=1;rounded=0;fontFamily=Helvetica;fontSize=12;fontColor=default;entryX=0.5;entryY=0.5;entryDx=0;entryDy=0;entryPerimeter=0;fillColor=#f8cecc;strokeColor=#b85450;exitX=0.75;exitY=0.1;exitDx=0;exitDy=0;exitPerimeter=0;" parent="1" source="I__QmyRRbSbnrp2AgYeY-21" target="I__QmyRRbSbnrp2AgYeY-18" edge="1">
          <mxGeometry width="160" relative="1" as="geometry">
            <mxPoint x="770" y="380" as="sourcePoint" />
            <mxPoint x="780" y="1130" as="targetPoint" />
            <Array as="points">
              <mxPoint x="790" y="199" />
              <mxPoint x="790" y="210" />
              <mxPoint x="790" y="85" />
            </Array>
          </mxGeometry>
        </mxCell>
        <mxCell id="I__QmyRRbSbnrp2AgYeY-53" value="" style="endArrow=block;endSize=16;endFill=0;html=1;rounded=0;fontFamily=Helvetica;fontSize=12;fontColor=default;entryX=0.5;entryY=0.5;entryDx=0;entryDy=0;entryPerimeter=0;fillColor=#f8cecc;strokeColor=#b85450;exitX=0.75;exitY=0.1;exitDx=0;exitDy=0;exitPerimeter=0;" parent="1" source="I__QmyRRbSbnrp2AgYeY-20" target="I__QmyRRbSbnrp2AgYeY-18" edge="1">
          <mxGeometry width="160" relative="1" as="geometry">
            <mxPoint x="750" y="650" as="sourcePoint" />
            <mxPoint x="70" y="1010" as="targetPoint" />
            <Array as="points">
              <mxPoint x="790" y="370" />
              <mxPoint x="790" y="360" />
              <mxPoint x="790" y="85" />
            </Array>
          </mxGeometry>
        </mxCell>
        <object label="تسجيل خروج" id="I__QmyRRbSbnrp2AgYeY-8">
          <mxCell style="ellipse;whiteSpace=wrap;html=1;fillColor=#fad7ac;strokeColor=#b46504;fontColor=#1A1A1A;" parent="1" vertex="1">
            <mxGeometry x="150" y="65" width="105" height="40" as="geometry" />
          </mxCell>
        </object>
        <object label="انشاء حساب" id="I__QmyRRbSbnrp2AgYeY-62">
          <mxCell style="ellipse;whiteSpace=wrap;html=1;fillColor=#b1ddf0;strokeColor=#10739e;fontColor=#1A1A1A;" parent="1" vertex="1">
            <mxGeometry x="150" y="210" width="105" height="40" as="geometry" />
          </mxCell>
        </object>
        <object label="تأكيد الحساب المدخل و&lt;br&gt;&amp;nbsp;رقم الهاتف" id="I__QmyRRbSbnrp2AgYeY-63">
          <mxCell style="ellipse;whiteSpace=wrap;html=1;fillColor=#b1ddf0;strokeColor=#10739e;fontColor=#1A1A1A;" parent="1" vertex="1">
            <mxGeometry x="307.5" y="160" width="110" height="40" as="geometry" />
          </mxCell>
        </object>
        <mxCell id="I__QmyRRbSbnrp2AgYeY-66" value="&lt;span style=&quot;&quot;&gt;&lt;font color=&quot;#1a1a1a&quot;&gt;&amp;lt;&amp;lt;include&amp;gt;&amp;gt;&lt;/font&gt;&lt;/span&gt;" style="endArrow=open;endSize=12;dashed=1;html=1;rounded=0;fontFamily=Helvetica;fontSize=12;fontColor=default;exitX=1;exitY=0.5;exitDx=0;exitDy=0;entryX=0;entryY=1;entryDx=0;entryDy=0;strokeColor=#1A1A1A;labelBackgroundColor=#c8d3dc;labelBorderColor=none;" parent="1" source="I__QmyRRbSbnrp2AgYeY-62" target="I__QmyRRbSbnrp2AgYeY-63" edge="1">
          <mxGeometry x="-0.0464" width="160" relative="1" as="geometry">
            <mxPoint x="450" y="340" as="sourcePoint" />
            <mxPoint x="610" y="340" as="targetPoint" />
            <mxPoint as="offset" />
          </mxGeometry>
        </mxCell>
        <object label="مراجعة طلب انشاء&lt;br&gt;حساب الفني" id="I__QmyRRbSbnrp2AgYeY-69">
          <mxCell style="ellipse;whiteSpace=wrap;html=1;fillColor=#d0cee2;strokeColor=#56517e;fontColor=#1A1A1A;" parent="1" vertex="1">
            <mxGeometry x="150" y="490" width="105" height="40" as="geometry" />
          </mxCell>
        </object>
        <object label="قرائة مراجعات الخدمات&amp;nbsp;&lt;br&gt;المقدمة" id="I__QmyRRbSbnrp2AgYeY-71">
          <mxCell style="ellipse;whiteSpace=wrap;html=1;fillColor=#d0cee2;strokeColor=#56517e;fontColor=#1A1A1A;" parent="1" vertex="1">
            <mxGeometry x="150" y="555" width="105" height="40" as="geometry" />
          </mxCell>
        </object>
        <object label="عرض سجل الخدمات" id="I__QmyRRbSbnrp2AgYeY-73">
          <mxCell style="ellipse;whiteSpace=wrap;html=1;fillColor=#b1ddf0;strokeColor=#10739e;fontColor=#1A1A1A;" parent="1" vertex="1">
            <mxGeometry x="150" y="330" width="105" height="40" as="geometry" />
          </mxCell>
        </object>
        <object label="تقييم الخدمة" id="I__QmyRRbSbnrp2AgYeY-75">
          <mxCell style="ellipse;whiteSpace=wrap;html=1;fillColor=#b1ddf0;strokeColor=#10739e;fontColor=#1A1A1A;" parent="1" vertex="1">
            <mxGeometry x="275" y="345" width="105" height="40" as="geometry" />
          </mxCell>
        </object>
        <object label="مراجعة التقييمات&amp;nbsp;" id="I__QmyRRbSbnrp2AgYeY-81">
          <mxCell style="ellipse;whiteSpace=wrap;html=1;fillColor=#d0cee2;strokeColor=#56517e;fontColor=#1A1A1A;" parent="1" vertex="1">
            <mxGeometry x="156" y="620" width="105" height="40" as="geometry" />
          </mxCell>
        </object>
        <mxCell id="I__QmyRRbSbnrp2AgYeY-92" style="edgeStyle=orthogonalEdgeStyle;rounded=0;orthogonalLoop=1;jettySize=auto;html=1;fontFamily=Helvetica;fontSize=12;fontColor=default;strokeColor=#000000;entryX=0;entryY=0.5;entryDx=0;entryDy=0;exitX=0.5;exitY=0.5;exitDx=0;exitDy=0;exitPerimeter=0;" parent="1" source="I__QmyRRbSbnrp2AgYeY-2" target="I__QmyRRbSbnrp2AgYeY-8" edge="1">
          <mxGeometry relative="1" as="geometry">
            <mxPoint x="265" y="84.76" as="targetPoint" />
            <mxPoint x="60" y="84.76" as="sourcePoint" />
            <Array as="points" />
          </mxGeometry>
        </mxCell>
        <mxCell id="I__QmyRRbSbnrp2AgYeY-93" value="" style="endArrow=block;endSize=16;endFill=0;html=1;rounded=0;fontFamily=Helvetica;fontSize=12;fontColor=default;fillColor=#008a00;strokeColor=#005700;entryX=0;entryY=0.3333333333333333;entryDx=0;entryDy=0;entryPerimeter=0;exitX=0.75;exitY=0.1;exitDx=0;exitDy=0;exitPerimeter=0;" parent="1" source="I__QmyRRbSbnrp2AgYeY-18" target="I__QmyRRbSbnrp2AgYeY-17" edge="1">
          <mxGeometry width="160" relative="1" as="geometry">
            <mxPoint x="790" y="270" as="sourcePoint" />
            <mxPoint x="30" y="80" as="targetPoint" />
            <Array as="points">
              <mxPoint x="790" y="49" />
              <mxPoint x="790" y="20" />
              <mxPoint x="30" y="20" />
              <mxPoint x="20" y="20" />
              <mxPoint x="20" y="70" />
              <mxPoint x="20" y="170" />
              <mxPoint x="20" y="265" />
            </Array>
          </mxGeometry>
        </mxCell>
        <mxCell id="I__QmyRRbSbnrp2AgYeY-95" value="" style="endArrow=block;endSize=16;endFill=0;html=1;rounded=0;fontFamily=Helvetica;fontSize=12;fontColor=default;fillColor=#f8cecc;strokeColor=#b85450;entryX=0;entryY=0.3333333333333333;entryDx=0;entryDy=0;entryPerimeter=0;exitX=0.25;exitY=0.1;exitDx=0;exitDy=0;exitPerimeter=0;" parent="1" source="I__QmyRRbSbnrp2AgYeY-17" target="I__QmyRRbSbnrp2AgYeY-2" edge="1">
          <mxGeometry width="160" relative="1" as="geometry">
            <mxPoint x="30" y="270" as="sourcePoint" />
            <mxPoint x="50" y="105.00000000000023" as="targetPoint" />
            <Array as="points">
              <mxPoint x="30" y="244" />
              <mxPoint x="30" y="235" />
              <mxPoint x="30" y="70" />
            </Array>
          </mxGeometry>
        </mxCell>
        <mxCell id="I__QmyRRbSbnrp2AgYeY-96" value="" style="endArrow=block;endSize=16;endFill=0;html=1;rounded=0;fontFamily=Helvetica;fontSize=12;fontColor=default;fillColor=#f8cecc;strokeColor=#b85450;entryX=0;entryY=0.3333333333333333;entryDx=0;entryDy=0;entryPerimeter=0;exitX=0.25;exitY=0.1;exitDx=0;exitDy=0;exitPerimeter=0;" parent="1" source="I__QmyRRbSbnrp2AgYeY-19" target="I__QmyRRbSbnrp2AgYeY-2" edge="1">
          <mxGeometry width="160" relative="1" as="geometry">
            <mxPoint x="30" y="580.9142717633929" as="sourcePoint" />
            <mxPoint x="60" y="70" as="targetPoint" />
            <Array as="points">
              <mxPoint x="30" y="474" />
              <mxPoint x="30" y="425" />
              <mxPoint x="30" y="270" />
              <mxPoint x="30" y="70" />
            </Array>
          </mxGeometry>
        </mxCell>
        <object label="طلب انشاء حساب" id="I__QmyRRbSbnrp2AgYeY-102">
          <mxCell style="ellipse;whiteSpace=wrap;html=1;fillColor=#cdeb8b;strokeColor=#36393d;fontColor=#1A1A1A;" parent="1" vertex="1">
            <mxGeometry x="495" y="260" width="110" height="40" as="geometry" />
          </mxCell>
        </object>
        <object label="ارسال فنيين" id="I__QmyRRbSbnrp2AgYeY-104">
          <mxCell style="ellipse;whiteSpace=wrap;html=1;fillColor=#d5e8d4;strokeColor=#82b366;gradientColor=#97d077;fontColor=#1A1A1A;" parent="1" vertex="1">
            <mxGeometry x="510" y="360" width="105" height="40" as="geometry" />
          </mxCell>
        </object>
        <object label="&amp;nbsp;طلب خدمة" id="I__QmyRRbSbnrp2AgYeY-114">
          <mxCell style="ellipse;whiteSpace=wrap;html=1;fillColor=#b1ddf0;strokeColor=#10739e;fontColor=#1A1A1A;" parent="1" vertex="1">
            <mxGeometry x="150" y="270" width="105" height="40" as="geometry" />
          </mxCell>
        </object>
        <object label="التواصل مع الفني" id="I__QmyRRbSbnrp2AgYeY-115">
          <mxCell style="ellipse;whiteSpace=wrap;html=1;fillColor=#b1ddf0;strokeColor=#10739e;fontColor=#1A1A1A;" parent="1" vertex="1">
            <mxGeometry x="390" y="305" width="105" height="40" as="geometry" />
          </mxCell>
        </object>
        <mxCell id="I__QmyRRbSbnrp2AgYeY-116" value="&lt;font color=&quot;#1a1a1a&quot;&gt;&amp;lt;&amp;lt;include&amp;gt;&amp;gt;&lt;/font&gt;" style="endArrow=open;endSize=12;dashed=1;html=1;rounded=0;fontFamily=Helvetica;fontSize=12;fontColor=default;exitX=1;exitY=0.5;exitDx=0;exitDy=0;entryX=0;entryY=0.5;entryDx=0;entryDy=0;strokeColor=#1A1A1A;labelBackgroundColor=#c8d3dc;labelBorderColor=none;" parent="1" source="I__QmyRRbSbnrp2AgYeY-114" target="I__QmyRRbSbnrp2AgYeY-117" edge="1">
          <mxGeometry x="-0.0468" width="160" relative="1" as="geometry">
            <mxPoint x="265" y="380" as="sourcePoint" />
            <mxPoint x="300" y="320" as="targetPoint" />
            <mxPoint as="offset" />
          </mxGeometry>
        </mxCell>
        <object label="تحديد نوع الخدمة" id="I__QmyRRbSbnrp2AgYeY-117">
          <mxCell style="ellipse;whiteSpace=wrap;html=1;fillColor=#b1ddf0;strokeColor=#10739e;fontColor=#1A1A1A;" parent="1" vertex="1">
            <mxGeometry x="335" y="260" width="110" height="40" as="geometry" />
          </mxCell>
        </object>
        <mxCell id="I__QmyRRbSbnrp2AgYeY-118" value="&lt;font color=&quot;#1a1a1a&quot;&gt;&amp;lt;&amp;lt;include&amp;gt;&amp;gt;&lt;/font&gt;" style="endArrow=open;endSize=12;dashed=1;html=1;rounded=0;fontFamily=Helvetica;fontSize=12;fontColor=default;exitX=0.938;exitY=0.753;exitDx=0;exitDy=0;entryX=0;entryY=0.5;entryDx=0;entryDy=0;strokeColor=#1A1A1A;labelBackgroundColor=#c8d3dc;labelBorderColor=none;exitPerimeter=0;" parent="1" source="I__QmyRRbSbnrp2AgYeY-114" target="I__QmyRRbSbnrp2AgYeY-115" edge="1">
          <mxGeometry x="-0.0426" width="160" relative="1" as="geometry">
            <mxPoint x="260" y="319.71" as="sourcePoint" />
            <mxPoint x="354" y="319.71" as="targetPoint" />
            <mxPoint as="offset" />
          </mxGeometry>
        </mxCell>
        <mxCell id="I__QmyRRbSbnrp2AgYeY-119" value="&lt;font color=&quot;#1a1a1a&quot;&gt;&amp;lt;&amp;lt;extend&amp;gt;&amp;gt;&lt;/font&gt;" style="endArrow=open;endSize=12;dashed=1;html=1;rounded=0;fontFamily=Helvetica;fontSize=12;fontColor=default;exitX=0.284;exitY=0.046;exitDx=0;exitDy=0;strokeColor=#1A1A1A;labelBackgroundColor=#c8d3dc;labelBorderColor=none;entryX=1;entryY=1;entryDx=0;entryDy=0;exitPerimeter=0;" parent="1" source="I__QmyRRbSbnrp2AgYeY-75" target="I__QmyRRbSbnrp2AgYeY-114" edge="1">
          <mxGeometry x="-0.1969" width="160" relative="1" as="geometry">
            <mxPoint x="250" y="370" as="sourcePoint" />
            <mxPoint x="190" y="360" as="targetPoint" />
            <mxPoint as="offset" />
          </mxGeometry>
        </mxCell>
        <object label="ارسال رد للطلب" id="I__QmyRRbSbnrp2AgYeY-121">
          <mxCell style="ellipse;whiteSpace=wrap;html=1;fillColor=#cce5ff;strokeColor=#36393d;fontColor=#1A1A1A;" parent="1" vertex="1">
            <mxGeometry x="510" y="140" width="110" height="40" as="geometry" />
          </mxCell>
        </object>
        <object label="&amp;nbsp; الموافقة على رد الفني&amp;nbsp;" id="I__QmyRRbSbnrp2AgYeY-125">
          <mxCell style="ellipse;whiteSpace=wrap;html=1;fillColor=#b1ddf0;strokeColor=#10739e;fontColor=#1A1A1A;" parent="1" vertex="1">
            <mxGeometry x="340" y="210" width="105" height="40" as="geometry" />
          </mxCell>
        </object>
        <mxCell id="I__QmyRRbSbnrp2AgYeY-126" style="edgeStyle=orthogonalEdgeStyle;rounded=0;orthogonalLoop=1;jettySize=auto;html=1;exitX=0.5;exitY=1;exitDx=0;exitDy=0;fontFamily=Helvetica;fontSize=12;fontColor=default;" parent="1" source="I__QmyRRbSbnrp2AgYeY-125" target="I__QmyRRbSbnrp2AgYeY-125" edge="1">
          <mxGeometry relative="1" as="geometry" />
        </mxCell>
        <object label="موافقة على الطلب" id="I__QmyRRbSbnrp2AgYeY-135">
          <mxCell style="ellipse;whiteSpace=wrap;html=1;fillColor=#d0cee2;strokeColor=#56517e;fontColor=#1A1A1A;" parent="1" vertex="1">
            <mxGeometry x="366" y="510" width="105" height="40" as="geometry" />
          </mxCell>
        </object>
        <mxCell id="I__QmyRRbSbnrp2AgYeY-136" value="&lt;font color=&quot;#1a1a1a&quot;&gt;&amp;lt;&amp;lt;extend&amp;gt;&amp;gt;&lt;/font&gt;" style="endArrow=open;endSize=12;dashed=1;html=1;rounded=0;fontFamily=Helvetica;fontSize=12;fontColor=default;exitX=0;exitY=0.5;exitDx=0;exitDy=0;strokeColor=#1A1A1A;labelBackgroundColor=#c8d3dc;labelBorderColor=none;entryX=1;entryY=0.5;entryDx=0;entryDy=0;" parent="1" source="I__QmyRRbSbnrp2AgYeY-135" target="I__QmyRRbSbnrp2AgYeY-69" edge="1">
          <mxGeometry x="-0.0426" width="160" relative="1" as="geometry">
            <mxPoint x="303" y="755" as="sourcePoint" />
            <mxPoint x="265" y="650" as="targetPoint" />
            <mxPoint as="offset" />
          </mxGeometry>
        </mxCell>
        <object label="حظر جزئي او كلي" id="I__QmyRRbSbnrp2AgYeY-137">
          <mxCell style="ellipse;whiteSpace=wrap;html=1;fillColor=#d0cee2;strokeColor=#56517e;fontColor=#1A1A1A;" parent="1" vertex="1">
            <mxGeometry x="366" y="630" width="105" height="40" as="geometry" />
          </mxCell>
        </object>
        <mxCell id="I__QmyRRbSbnrp2AgYeY-138" value="&lt;font color=&quot;#1a1a1a&quot;&gt;&amp;lt;&amp;lt;extend&amp;gt;&amp;gt;&lt;/font&gt;" style="endArrow=open;endSize=12;dashed=1;html=1;rounded=0;fontFamily=Helvetica;fontSize=12;fontColor=default;exitX=0;exitY=0.5;exitDx=0;exitDy=0;strokeColor=#1A1A1A;labelBackgroundColor=#c8d3dc;labelBorderColor=none;entryX=1;entryY=0.5;entryDx=0;entryDy=0;" parent="1" source="I__QmyRRbSbnrp2AgYeY-137" target="I__QmyRRbSbnrp2AgYeY-81" edge="1">
          <mxGeometry x="-0.0426" width="160" relative="1" as="geometry">
            <mxPoint x="302" y="850" as="sourcePoint" />
            <mxPoint x="264" y="820" as="targetPoint" />
            <mxPoint as="offset" />
          </mxGeometry>
        </mxCell>
        <mxCell id="I__QmyRRbSbnrp2AgYeY-143" style="edgeStyle=orthogonalEdgeStyle;rounded=0;orthogonalLoop=1;jettySize=auto;html=1;fontFamily=Helvetica;fontSize=12;fontColor=default;strokeColor=#1A1A1A;exitX=0.5;exitY=0.5;exitDx=0;exitDy=0;exitPerimeter=0;entryX=1;entryY=0.5;entryDx=0;entryDy=0;" parent="1" source="I__QmyRRbSbnrp2AgYeY-18" edge="1">
          <mxGeometry relative="1" as="geometry">
            <mxPoint x="620" y="96" as="targetPoint" />
            <mxPoint x="730" y="102.84" as="sourcePoint" />
            <Array as="points">
              <mxPoint x="680" y="85" />
              <mxPoint x="680" y="96" />
            </Array>
          </mxGeometry>
        </mxCell>
        <mxCell id="I__QmyRRbSbnrp2AgYeY-146" style="edgeStyle=orthogonalEdgeStyle;rounded=0;orthogonalLoop=1;jettySize=auto;html=1;fontFamily=Helvetica;fontSize=12;fontColor=default;strokeColor=#1A1A1A;exitX=0.5;exitY=0.5;exitDx=0;exitDy=0;exitPerimeter=0;entryX=0.821;entryY=0.622;entryDx=0;entryDy=0;entryPerimeter=0;" parent="1" source="I__QmyRRbSbnrp2AgYeY-144" target="I__QmyRRbSbnrp2AgYeY-59" edge="1">
          <mxGeometry relative="1" as="geometry">
            <Array as="points" />
            <mxPoint x="677" y="725" as="targetPoint" />
          </mxGeometry>
        </mxCell>
        <object label="visitor" id="I__QmyRRbSbnrp2AgYeY-144">
          <mxCell style="shape=umlActor;verticalLabelPosition=bottom;verticalAlign=top;html=1;fillColor=#b0e3e6;strokeColor=#0e8088;fontColor=#1A1A1A;" parent="1" vertex="1">
            <mxGeometry x="730" y="530" width="40" height="90" as="geometry" />
          </mxCell>
        </object>
        <mxCell id="I__QmyRRbSbnrp2AgYeY-153" value="Technical services&amp;nbsp;" style="text;align=center;fontStyle=1;verticalAlign=middle;spacingLeft=3;spacingRight=3;strokeColor=none;rotatable=0;points=[[0,0.5],[1,0.5]];portConstraint=eastwest;html=1;fontSize=12;fontFamily=Helvetica;fontColor=#1A1A1A;" parent="1" vertex="1">
          <mxGeometry x="352" y="50" width="124" height="26" as="geometry" />
        </mxCell>
        <object label="ادارة حسابات الشركات" id="0F87uQr_aSHQk2SxOkEr-1">
          <mxCell style="ellipse;whiteSpace=wrap;html=1;fillColor=#d0cee2;strokeColor=#56517e;fontColor=#1A1A1A;" parent="1" vertex="1">
            <mxGeometry x="150" y="690" width="105" height="40" as="geometry" />
          </mxCell>
        </object>
        <object label="كتابة ردود" id="KX7zg8ddFPPzfFEK-kxr-7">
          <mxCell style="ellipse;whiteSpace=wrap;html=1;fillColor=#d0cee2;strokeColor=#56517e;fontColor=#1A1A1A;" parent="1" vertex="1">
            <mxGeometry x="366" y="570" width="105" height="40" as="geometry" />
          </mxCell>
        </object>
        <mxCell id="KX7zg8ddFPPzfFEK-kxr-8" value="&lt;font color=&quot;#1a1a1a&quot;&gt;&amp;lt;&amp;lt;include&amp;gt;&amp;gt;&lt;/font&gt;" style="endArrow=open;endSize=12;dashed=1;html=1;rounded=0;fontFamily=Helvetica;fontSize=12;fontColor=default;exitX=1;exitY=0.5;exitDx=0;exitDy=0;entryX=0;entryY=0.5;entryDx=0;entryDy=0;strokeColor=#1A1A1A;labelBackgroundColor=#c8d3dc;labelBorderColor=none;" parent="1" source="I__QmyRRbSbnrp2AgYeY-71" target="KX7zg8ddFPPzfFEK-kxr-7" edge="1">
          <mxGeometry x="0.0199" y="-2" width="160" relative="1" as="geometry">
            <mxPoint x="275" y="505" as="sourcePoint" />
            <mxPoint x="379" y="560" as="targetPoint" />
            <mxPoint as="offset" />
          </mxGeometry>
        </mxCell>
        <mxCell id="KX7zg8ddFPPzfFEK-kxr-28" style="edgeStyle=orthogonalEdgeStyle;rounded=0;orthogonalLoop=1;jettySize=auto;html=1;entryX=1;entryY=0.5;entryDx=0;entryDy=0;strokeColor=#1A1A1A;" parent="1" source="KX7zg8ddFPPzfFEK-kxr-25" target="0F87uQr_aSHQk2SxOkEr-1" edge="1">
          <mxGeometry relative="1" as="geometry">
            <Array as="points">
              <mxPoint x="296" y="710" />
            </Array>
          </mxGeometry>
        </mxCell>
        <object label="تعديل" id="KX7zg8ddFPPzfFEK-kxr-25">
          <mxCell style="ellipse;whiteSpace=wrap;html=1;fillColor=#d0cee2;strokeColor=#56517e;fontColor=#1A1A1A;" parent="1" vertex="1">
            <mxGeometry x="275" y="730" width="45" height="25" as="geometry" />
          </mxCell>
        </object>
        <mxCell id="KX7zg8ddFPPzfFEK-kxr-29" style="edgeStyle=orthogonalEdgeStyle;rounded=0;orthogonalLoop=1;jettySize=auto;html=1;entryX=1;entryY=0.5;entryDx=0;entryDy=0;strokeColor=#1A1A1A;exitX=0.5;exitY=0;exitDx=0;exitDy=0;" parent="1" source="KX7zg8ddFPPzfFEK-kxr-27" target="0F87uQr_aSHQk2SxOkEr-1" edge="1">
          <mxGeometry relative="1" as="geometry">
            <mxPoint x="350" y="620.0278087107536" as="sourcePoint" />
            <Array as="points">
              <mxPoint x="363" y="710" />
            </Array>
          </mxGeometry>
        </mxCell>
        <object label="اضافة" id="KX7zg8ddFPPzfFEK-kxr-27">
          <mxCell style="ellipse;whiteSpace=wrap;html=1;fillColor=#d0cee2;strokeColor=#56517e;fontColor=#1A1A1A;" parent="1" vertex="1">
            <mxGeometry x="340" y="730" width="45" height="25" as="geometry" />
          </mxCell>
        </object>
        <object label="كتابة مراجعة" id="KX7zg8ddFPPzfFEK-kxr-33">
          <mxCell style="ellipse;whiteSpace=wrap;html=1;fillColor=#cce5ff;strokeColor=#36393d;fontColor=#1A1A1A;" parent="1" vertex="1">
            <mxGeometry x="510" y="76" width="110" height="40" as="geometry" />
          </mxCell>
        </object>
        <object label="كتابة مراجعة" id="KX7zg8ddFPPzfFEK-kxr-35">
          <mxCell style="ellipse;whiteSpace=wrap;html=1;fillColor=#b1ddf0;strokeColor=#10739e;fontColor=#1A1A1A;" parent="1" vertex="1">
            <mxGeometry x="395" y="400" width="110" height="40" as="geometry" />
          </mxCell>
        </object>
        <mxCell id="KX7zg8ddFPPzfFEK-kxr-36" value="&lt;span style=&quot;&quot;&gt;&lt;font color=&quot;#1a1a1a&quot;&gt;&amp;lt;&amp;lt;include&amp;gt;&amp;gt;&lt;/font&gt;&lt;/span&gt;" style="endArrow=open;endSize=12;dashed=1;html=1;rounded=0;fontFamily=Helvetica;fontSize=12;fontColor=default;exitX=1;exitY=1;exitDx=0;exitDy=0;strokeColor=#1A1A1A;labelBackgroundColor=#c8d3dc;labelBorderColor=none;entryX=0;entryY=0.5;entryDx=0;entryDy=0;" parent="1" source="I__QmyRRbSbnrp2AgYeY-75" target="KX7zg8ddFPPzfFEK-kxr-35" edge="1">
          <mxGeometry x="-0.1581" width="160" relative="1" as="geometry">
            <mxPoint x="431.4999999999984" y="375" as="sourcePoint" />
            <mxPoint x="748.5" y="397.5" as="targetPoint" />
            <mxPoint as="offset" />
          </mxGeometry>
        </mxCell>
        <object label="&amp;nbsp;الغاء الطلب&amp;nbsp;" id="KX7zg8ddFPPzfFEK-kxr-37">
          <mxCell style="ellipse;whiteSpace=wrap;html=1;fillColor=#b1ddf0;strokeColor=#10739e;fontColor=#1A1A1A;" parent="1" vertex="1">
            <mxGeometry x="150" y="385" width="105" height="40" as="geometry" />
          </mxCell>
        </object>
        <mxCell id="KX7zg8ddFPPzfFEK-kxr-45" value="&lt;font color=&quot;#1a1a1a&quot;&gt;&amp;lt;&amp;lt;extend&amp;gt;&amp;gt;&lt;/font&gt;" style="endArrow=open;endSize=12;dashed=1;html=1;rounded=0;fontFamily=Helvetica;fontSize=12;fontColor=default;exitX=0;exitY=0.5;exitDx=0;exitDy=0;strokeColor=#1A1A1A;labelBackgroundColor=#c8d3dc;labelBorderColor=none;entryX=1;entryY=0;entryDx=0;entryDy=0;" parent="1" source="I__QmyRRbSbnrp2AgYeY-121" target="I__QmyRRbSbnrp2AgYeY-125" edge="1">
          <mxGeometry x="-0.0542" y="2" width="160" relative="1" as="geometry">
            <mxPoint x="528.5" y="388" as="sourcePoint" />
            <mxPoint x="476.5" y="320" as="targetPoint" />
            <mxPoint as="offset" />
          </mxGeometry>
        </mxCell>
        <mxCell id="o8vnaYnPt8jfT8rPjbr--4" value="&lt;span style=&quot;&quot;&gt;&lt;font color=&quot;#1a1a1a&quot;&gt;&amp;lt;&amp;lt;include&amp;gt;&amp;gt;&lt;/font&gt;&lt;/span&gt;" style="endArrow=open;endSize=12;dashed=1;html=1;rounded=0;fontFamily=Helvetica;fontSize=12;fontColor=default;strokeColor=#1A1A1A;labelBackgroundColor=#c8d3dc;labelBorderColor=none;exitX=1;exitY=0;exitDx=0;exitDy=0;entryX=0.5;entryY=1;entryDx=0;entryDy=0;" parent="1" source="I__QmyRRbSbnrp2AgYeY-117" target="I__QmyRRbSbnrp2AgYeY-121" edge="1">
          <mxGeometry x="-0.0927" width="160" relative="1" as="geometry">
            <mxPoint x="477" y="215" as="sourcePoint" />
            <mxPoint x="523.9999999999987" y="250" as="targetPoint" />
            <mxPoint as="offset" />
          </mxGeometry>
        </mxCell>
        <mxCell id="o8vnaYnPt8jfT8rPjbr--8" style="edgeStyle=orthogonalEdgeStyle;rounded=0;orthogonalLoop=1;jettySize=auto;html=1;entryX=0.75;entryY=0.1;entryDx=0;entryDy=0;entryPerimeter=0;strokeColor=#1A1A1A;exitX=0;exitY=0.5;exitDx=0;exitDy=0;" parent="1" source="I__QmyRRbSbnrp2AgYeY-125" target="I__QmyRRbSbnrp2AgYeY-17" edge="1">
          <mxGeometry relative="1" as="geometry">
            <Array as="points">
              <mxPoint x="320" y="230" />
              <mxPoint x="320" y="260" />
              <mxPoint x="120" y="260" />
              <mxPoint x="120" y="244" />
            </Array>
          </mxGeometry>
        </mxCell>
        <object label="عرض الخدمات المتاحة" id="I4potM8M8UHVqqpZkCDa-1">
          <mxCell style="ellipse;whiteSpace=wrap;html=1;fillColor=#d5e8d4;strokeColor=#82b366;gradientColor=#97d077;fontColor=#1A1A1A;" parent="1" vertex="1">
            <mxGeometry x="505" y="530" width="105" height="40" as="geometry" />
          </mxCell>
        </object>
      </root>
    </mxGraphModel>
  </diagram>
</mxfile>
